<?xml version="1.0" standalone="no"?>
<!DOCTYPE svg PUBLIC "-//W3C//DTD SVG 20010904//EN"
 "http://www.w3.org/TR/2001/REC-SVG-20010904/DTD/svg10.dtd">
<svg version="1.0" xmlns="http://www.w3.org/2000/svg"
 width="225.000000pt" height="225.000000pt" viewBox="0 0 225.000000 225.000000"
 preserveAspectRatio="xMidYMid meet">
<metadata>
Created by potrace 1.16, written by Peter Selinger 2001-2019
</metadata>
<g transform="translate(0.000000,225.000000) scale(0.100000,-0.100000)"
fill="#000000" stroke="none">
<path d="M1102 2148 c-9 -9 -12 -75 -12 -237 l0 -226 -301 -301 c-277 -277
-300 -303 -290 -323 7 -11 19 -21 29 -21 9 0 148 131 307 290 l290 290 290
-290 c160 -159 298 -290 307 -290 10 0 22 10 29 21 10 20 -13 46 -290 323
l-301 301 0 226 c0 224 -4 249 -35 249 -6 0 -16 -5 -23 -12z"/>
<path d="M1058 1306 c-128 -35 -200 -163 -168 -297 16 -67 94 -151 155 -168
155 -42 300 50 321 202 8 58 -17 142 -55 188 -56 68 -164 100 -253 75z m129
-67 c67 -25 113 -95 113 -171 0 -137 -160 -221 -271 -143 -53 38 -79 86 -79
148 0 55 16 90 57 129 48 46 118 61 180 37z"/>
<path d="M1102 1198 c-7 -7 -12 -29 -12 -50 0 -37 -1 -38 -37 -38 -49 0 -66
-12 -61 -41 3 -22 8 -24 71 -27 88 -4 97 4 97 82 0 59 -11 86 -35 86 -6 0 -16
-5 -23 -12z"/>
<path d="M284 926 l-34 -34 0 -115 c0 -96 3 -116 16 -121 29 -11 199 -7 212 6
8 8 12 47 12 110 0 144 -29 188 -123 188 -42 0 -54 -5 -83 -34z"/>
<path d="M614 941 c-17 -11 -36 -34 -43 -52 -15 -44 -15 -211 1 -227 13 -13
183 -17 212 -6 13 5 16 25 16 121 l0 115 -34 34 c-28 28 -41 34 -77 34 -26 0
-57 -8 -75 -19z"/>
<path d="M1499 945 c-43 -23 -59 -71 -59 -177 0 -60 4 -98 12 -106 8 -8 48
-12 115 -12 122 0 123 1 123 112 0 95 -14 141 -51 172 -35 30 -97 35 -140 11z"/>
<path d="M1798 931 l-33 -29 -3 -112 c-3 -76 0 -115 8 -125 16 -19 200 -21
218 -3 18 18 16 201 -3 238 -22 42 -53 60 -107 60 -39 0 -54 -6 -80 -29z"/>
<path d="M944 711 c-12 -5 -31 -22 -43 -37 -20 -26 -21 -37 -21 -270 l0 -244
-424 0 c-373 0 -426 -2 -440 -16 -19 -19 -20 -26 -4 -42 17 -17 2209 -17 2226
0 16 16 15 23 -4 42 -14 14 -67 16 -439 16 l-424 0 -3 250 -3 250 -28 27 -27
28 -173 2 c-94 1 -182 -2 -193 -6z m344 -73 c7 -7 12 -22 12 -35 l0 -23 -175
0 -175 0 0 29 c0 16 6 32 13 34 28 12 313 7 325 -5z"/>
<path d="M254 527 c-2 -7 -3 -67 -2 -133 l3 -119 115 0 115 0 0 130 0 130
-113 3 c-87 2 -114 0 -118 -11z"/>
<path d="M572 528 c-13 -13 -17 -212 -6 -242 9 -24 229 -24 238 0 8 20 8 218
0 238 -5 13 -25 16 -113 16 -70 0 -111 -4 -119 -12z"/>
<path d="M1446 524 c-9 -23 -7 -227 2 -242 6 -9 37 -12 118 -10 l109 3 0 130
0 130 -111 3 c-95 2 -113 0 -118 -14z"/>
<path d="M1764 527 c-2 -7 -3 -67 -2 -133 l3 -119 115 0 115 0 0 130 0 130
-113 3 c-87 2 -114 0 -118 -11z"/>
</g>
</svg>
